<?xml version="1.0" encoding="UTF-8" standalone="no"?>
<!DOCTYPE svg PUBLIC "-//W3C//DTD SVG 1.1//EN" "http://www.w3.org/Graphics/SVG/1.1/DTD/svg11.dtd">
<svg xmlns="http://www.w3.org/2000/svg" version="1.1" viewBox="0.00 0.00 766.00 717.00">
<path fill="#000000" d="
  M 16.35 16.69
  L 151.73 16.69
  A 0.35 0.35 0.0 0 1 152.08 17.04
  L 152.09 48.82
  A 0.35 0.35 0.0 0 1 151.74 49.17
  L 16.35 49.17
  A 0.35 0.35 0.0 0 1 16.00 48.82
  L 16.00 17.04
  A 0.35 0.35 0.0 0 1 16.35 16.69
  Z
  M 150.06 19.13
  A 0.47 0.47 0.0 0 0 149.59 18.66
  L 18.47 18.66
  A 0.47 0.47 0.0 0 0 18.00 19.13
  L 18.00 46.71
  A 0.47 0.47 0.0 0 0 18.47 47.18
  L 149.59 47.18
  A 0.47 0.47 0.0 0 0 150.06 46.71
  L 150.06 19.13
  Z"
/>
<path fill="#000000" d="
  M 356.58 48.75
  A 0.43 0.43 0.0 0 1 356.15 49.18
  L 220.21 49.18
  A 0.43 0.43 0.0 0 1 219.78 48.75
  L 219.78 17.13
  A 0.43 0.43 0.0 0 1 220.21 16.70
  L 356.15 16.70
  A 0.43 0.43 0.0 0 1 356.58 17.13
  L 356.58 48.75
  Z
  M 354.55 19.17
  A 0.50 0.50 0.0 0 0 354.05 18.67
  L 222.33 18.67
  A 0.50 0.50 0.0 0 0 221.83 19.17
  L 221.83 46.65
  A 0.50 0.50 0.0 0 0 222.33 47.15
  L 354.05 47.15
  A 0.50 0.50 0.0 0 0 354.55 46.65
  L 354.55 19.17
  Z"
/>
<path fill="#000000" d="
  M 683.17 49.17
  L 441.74 49.18
  A 0.50 0.50 0.0 0 1 441.24 48.68
  L 441.24 17.19
  A 0.50 0.50 0.0 0 1 441.74 16.69
  L 683.23 16.71
  A 0.50 0.50 0.0 0 1 683.73 17.21
  L 683.67 48.67
  A 0.50 0.50 0.0 0 1 683.17 49.17
  Z
  M 681.67 19.56
  A 0.92 0.92 0.0 0 0 680.75 18.64
  L 444.17 18.64
  A 0.92 0.92 0.0 0 0 443.25 19.56
  L 443.25 46.26
  A 0.92 0.92 0.0 0 0 444.17 47.18
  L 680.75 47.18
  A 0.92 0.92 0.0 0 0 681.67 46.26
  L 681.67 19.56
  Z"
/>
<rect fill="#c04f15" x="443.25" y="18.64" width="238.42" height="28.54" rx="0.92"/>
<rect fill="#c04f15" x="18.00" y="18.66" width="132.06" height="28.52" rx="0.47"/>
<rect fill="#c04f15" x="221.83" y="18.67" width="132.72" height="28.48" rx="0.50"/>
<path fill="#000000" d="
  M 504.90 187.50
  A 0.46 0.46 0.0 0 1 504.44 187.96
  L 441.70 187.96
  A 0.46 0.46 0.0 0 1 441.24 187.50
  L 441.24 51.64
  A 0.46 0.46 0.0 0 1 441.70 51.18
  L 504.44 51.18
  A 0.46 0.46 0.0 0 1 504.90 51.64
  L 504.90 187.50
  Z
  M 471.73 53.58
  A 0.34 0.34 0.0 0 0 471.39 53.24
  L 443.59 53.24
  A 0.34 0.34 0.0 0 0 443.25 53.58
  L 443.25 185.54
  A 0.34 0.34 0.0 0 0 443.59 185.88
  L 471.39 185.88
  A 0.34 0.34 0.0 0 0 471.73 185.54
  L 471.73 53.58
  Z
  M 502.85 53.57
  A 0.34 0.34 0.0 0 0 502.51 53.23
  L 474.09 53.23
  A 0.34 0.34 0.0 0 0 473.75 53.57
  L 473.75 185.55
  A 0.34 0.34 0.0 0 0 474.09 185.89
  L 502.51 185.89
  A 0.34 0.34 0.0 0 0 502.85 185.55
  L 502.85 53.57
  Z"
/>
<path fill="#000000" d="
  M 356.57 83.26
  A 0.44 0.44 0.0 0 1 356.13 83.70
  L 220.23 83.70
  A 0.44 0.44 0.0 0 1 219.79 83.26
  L 219.79 51.62
  A 0.44 0.44 0.0 0 1 220.23 51.18
  L 356.13 51.18
  A 0.44 0.44 0.0 0 1 356.57 51.62
  L 356.57 83.26
  Z
  M 222.22 53.23
  A 0.41 0.41 0.0 0 0 221.81 53.64
  L 221.83 81.24
  A 0.41 0.41 0.0 0 0 222.24 81.65
  L 354.12 81.65
  A 0.41 0.41 0.0 0 0 354.53 81.24
  L 354.53 53.64
  A 0.41 0.41 0.0 0 0 354.12 53.23
  L 222.22 53.23
  Z"
/>
<path fill="#d1d1d1" d="
  M 222.22 53.23
  L 354.12 53.23
  A 0.41 0.41 0.0 0 1 354.53 53.64
  L 354.53 81.24
  A 0.41 0.41 0.0 0 1 354.12 81.65
  L 222.24 81.65
  A 0.41 0.41 0.0 0 1 221.83 81.24
  L 221.81 53.64
  A 0.41 0.41 0.0 0 1 222.22 53.23
  Z"
/>
<rect fill="#d1d1d1" x="443.25" y="53.24" width="28.48" height="132.64" rx="0.34"/>
<rect fill="#d1d1d1" x="473.75" y="53.23" width="29.10" height="132.66" rx="0.34"/>
<path fill="#000000" d="
  M 416.0946 102.5313
  A 20.93 20.59 93.0 0 1 396.6282 80.5524
  A 20.93 20.59 93.0 0 1 418.2854 60.7287
  A 20.93 20.59 93.0 0 1 437.7518 82.7076
  A 20.93 20.59 93.0 0 1 416.0946 102.5313
  Z
  M 418.1059 99.0876
  A 17.51 17.20 87.1 0 0 434.3980 80.7298
  A 17.51 17.20 87.1 0 0 416.3341 64.1124
  A 17.51 17.20 87.1 0 0 400.0420 82.4702
  A 17.51 17.20 87.1 0 0 418.1059 99.0876
  Z"
/>
<path fill="#000000" d="
  M 548.82 81.64
  A 20.92 20.92 0.0 0 1 527.90 102.56
  A 20.92 20.92 0.0 0 1 506.98 81.64
  A 20.92 20.92 0.0 0 1 527.90 60.72
  A 20.92 20.92 0.0 0 1 548.82 81.64
  Z
  M 545.45 81.63
  A 17.54 17.54 0.0 0 0 527.91 64.09
  A 17.54 17.54 0.0 0 0 510.37 81.63
  A 17.54 17.54 0.0 0 0 527.91 99.17
  A 17.54 17.54 0.0 0 0 545.45 81.63
  Z"
/>
<path fill="#000000" d="
  M 48.50 177.28
  A 0.52 0.52 0.0 0 1 47.98 177.80
  L 16.52 177.80
  A 0.52 0.52 0.0 0 1 16.00 177.28
  L 16.00 61.82
  A 0.52 0.52 0.0 0 1 16.52 61.30
  L 47.98 61.30
  A 0.52 0.52 0.0 0 1 48.50 61.82
  L 48.50 177.28
  Z
  M 46.47 63.83
  A 0.47 0.47 0.0 0 0 46.00 63.36
  L 18.48 63.36
  A 0.47 0.47 0.0 0 0 18.01 63.83
  L 18.01 175.25
  A 0.47 0.47 0.0 0 0 18.48 175.72
  L 46.00 175.72
  A 0.47 0.47 0.0 0 0 46.47 175.25
  L 46.47 63.83
  Z"
/>
<rect fill="#c04f15" x="18.01" y="63.36" width="28.46" height="112.36" rx="0.47"/>
<path fill="#000000" d="
  M 168.95 90.44
  A 20.93 20.93 0.0 0 1 148.02 111.37
  A 20.93 20.93 0.0 0 1 127.09 90.44
  A 20.93 20.93 0.0 0 1 148.02 69.51
  A 20.93 20.93 0.0 0 1 168.95 90.44
  Z
  M 165.56 90.44
  A 17.53 17.53 0.0 0 0 148.03 72.91
  A 17.53 17.53 0.0 0 0 130.50 90.44
  A 17.53 17.53 0.0 0 0 148.03 107.97
  A 17.53 17.53 0.0 0 0 165.56 90.44
  Z"
/>
<path fill="#000000" d="
  M 130.3085 115.8146
  A 39.49 39.33 0.5 0 1 90.4768 154.7985
  A 39.49 39.33 0.5 0 1 51.3315 115.1254
  A 39.49 39.33 0.5 0 1 91.1632 76.1415
  A 39.49 39.33 0.5 0 1 130.3085 115.8146
  Z
  M 128.2554 116.0784
  A 37.46 37.30 0.9 0 0 91.3859 78.1946
  A 37.46 37.30 0.9 0 0 53.3446 114.9016
  A 37.46 37.30 0.9 0 0 90.2141 152.7854
  A 37.46 37.30 0.9 0 0 128.2554 116.0784
  Z"
/>
<ellipse fill="#d1d1d1" cx="0.00" cy="0.00" transform="translate(90.80,115.49) rotate(0.9)" rx="37.46" ry="37.30"/>
<path fill="#000000" d="
  M 661.9916 100.0602
  A 21.01 20.60 -2.4 0 1 641.8626 121.5219
  A 21.01 20.60 -2.4 0 1 620.0084 101.8198
  A 21.01 20.60 -2.4 0 1 640.1374 80.3581
  A 21.01 20.60 -2.4 0 1 661.9916 100.0602
  Z
  M 658.4136 102.4317
  A 17.46 17.15 5.0 0 0 642.5147 83.8253
  A 17.46 17.15 5.0 0 0 623.6264 99.3883
  A 17.46 17.15 5.0 0 0 639.5253 117.9947
  A 17.46 17.15 5.0 0 0 658.4136 102.4317
  Z"
/>
<path fill="#000000" d="
  M 737.81 100.94
  A 20.63 20.63 0.0 0 1 717.18 121.57
  A 20.63 20.63 0.0 0 1 696.55 100.94
  A 20.63 20.63 0.0 0 1 717.18 80.31
  A 20.63 20.63 0.0 0 1 737.81 100.94
  Z
  M 734.31 100.91
  A 17.13 17.13 0.0 0 0 717.18 83.78
  A 17.13 17.13 0.0 0 0 700.05 100.91
  A 17.13 17.13 0.0 0 0 717.18 118.04
  A 17.13 17.13 0.0 0 0 734.31 100.91
  Z"
/>
<path fill="#000000" d="
  M 271.88 108.04
  A 20.94 20.94 0.0 0 1 250.94 128.98
  A 20.94 20.94 0.0 0 1 230.00 108.04
  A 20.94 20.94 0.0 0 1 250.94 87.10
  A 20.94 20.94 0.0 0 1 271.88 108.04
  Z
  M 268.48 108.03
  A 17.51 17.51 0.0 0 0 250.97 90.52
  A 17.51 17.51 0.0 0 0 233.46 108.03
  A 17.51 17.51 0.0 0 0 250.97 125.54
  A 17.51 17.51 0.0 0 0 268.48 108.03
  Z"
/>
<path fill="#000000" d="
  M 346.37 108.04
  A 20.95 20.95 0.0 0 1 325.42 128.99
  A 20.95 20.95 0.0 0 1 304.47 108.04
  A 20.95 20.95 0.0 0 1 325.42 87.09
  A 20.95 20.95 0.0 0 1 346.37 108.04
  Z
  M 342.98 108.04
  A 17.51 17.51 0.0 0 0 325.47 90.53
  A 17.51 17.51 0.0 0 0 307.96 108.04
  A 17.51 17.51 0.0 0 0 325.47 125.55
  A 17.51 17.51 0.0 0 0 342.98 108.04
  Z"
/>
<path fill="#000000" d="
  M 168.9516 140.0031
  A 20.94 20.59 -2.4 0 1 148.8922 161.4519
  A 20.94 20.59 -2.4 0 1 127.1084 141.7569
  A 20.94 20.59 -2.4 0 1 147.1678 120.3081
  A 20.94 20.59 -2.4 0 1 168.9516 140.0031
  Z
  M 165.5748 141.2785
  A 17.54 17.17 1.4 0 0 148.4595 123.6851
  A 17.54 17.17 1.4 0 0 130.5052 140.4215
  A 17.54 17.17 1.4 0 0 147.6205 158.0149
  A 17.54 17.17 1.4 0 0 165.5748 141.2785
  Z"
/>
<path fill="#000000" d="
  M 747.28 186.84
  A 0.39 0.39 0.0 0 1 746.89 187.23
  L 611.61 187.23
  A 0.39 0.39 0.0 0 1 611.22 186.84
  L 611.22 124.66
  A 0.39 0.39 0.0 0 1 611.61 124.27
  L 746.89 124.27
  A 0.39 0.39 0.0 0 1 747.28 124.66
  L 747.28 186.84
  Z
  M 745.26 126.73
  A 0.45 0.45 0.0 0 0 744.81 126.28
  L 613.69 126.28
  A 0.45 0.45 0.0 0 0 613.24 126.73
  L 613.24 154.31
  A 0.45 0.45 0.0 0 0 613.69 154.76
  L 744.81 154.76
  A 0.45 0.45 0.0 0 0 745.26 154.31
  L 745.26 126.73
  Z
  M 745.26 157.10
  A 0.34 0.34 0.0 0 0 744.92 156.76
  L 613.58 156.76
  A 0.34 0.34 0.0 0 0 613.24 157.10
  L 613.24 184.90
  A 0.34 0.34 0.0 0 0 613.58 185.24
  L 744.92 185.24
  A 0.34 0.34 0.0 0 0 745.26 184.90
  L 745.26 157.10
  Z"
/>
<rect fill="#d1d1d1" x="613.24" y="126.28" width="132.02" height="28.48" rx="0.45"/>
<path fill="#000000" d="
  M 416.2410 178.3385
  A 20.92 20.60 92.6 0 1 396.6112 156.5055
  A 20.92 20.60 92.6 0 1 418.1390 136.5415
  A 20.92 20.60 92.6 0 1 437.7688 158.3745
  A 20.92 20.60 92.6 0 1 416.2410 178.3385
  Z
  M 417.3834 174.9390
  A 17.51 17.20 89.4 0 0 434.3991 157.2499
  A 17.51 17.20 89.4 0 0 417.0166 139.9210
  A 17.51 17.20 89.4 0 0 400.0009 157.6101
  A 17.51 17.20 89.4 0 0 417.3834 174.9390
  Z"
/>
<path fill="#000000" d="
  M 548.82 157.46
  A 20.92 20.92 0.0 0 1 527.90 178.38
  A 20.92 20.92 0.0 0 1 506.98 157.46
  A 20.92 20.92 0.0 0 1 527.90 136.54
  A 20.92 20.92 0.0 0 1 548.82 157.46
  Z
  M 545.44 157.45
  A 17.54 17.54 0.0 0 0 527.90 139.91
  A 17.54 17.54 0.0 0 0 510.36 157.45
  A 17.54 17.54 0.0 0 0 527.90 174.99
  A 17.54 17.54 0.0 0 0 545.44 157.45
  Z"
/>
<rect fill="#d1d1d1" x="613.24" y="156.76" width="132.02" height="28.48" rx="0.34"/>
<path fill="#000000" d="
  M 48.50 467.79
  A 0.43 0.43 0.0 0 1 48.07 468.22
  L 16.43 468.22
  A 0.43 0.43 0.0 0 1 16.00 467.79
  L 16.00 185.65
  A 0.43 0.43 0.0 0 1 16.43 185.22
  L 48.07 185.22
  A 0.43 0.43 0.0 0 1 48.50 185.65
  L 48.50 467.79
  Z
  M 46.46 187.59
  A 0.34 0.34 0.0 0 0 46.12 187.25
  L 18.34 187.25
  A 0.34 0.34 0.0 0 0 18.00 187.59
  L 18.00 465.85
  A 0.34 0.34 0.0 0 0 18.34 466.19
  L 46.12 466.19
  A 0.34 0.34 0.0 0 0 46.46 465.85
  L 46.46 187.59
  Z"
/>
<rect fill="#c04f15" x="18.00" y="187.25" width="28.46" height="278.94" rx="0.34"/>
<path fill="#000000" d="
  M 661.9174 210.9414
  A 20.92 20.59 -0.9 0 1 641.3234 231.8575
  A 20.92 20.59 -0.9 0 1 620.0826 211.5986
  A 20.92 20.59 -0.9 0 1 640.6766 190.6825
  A 20.92 20.59 -0.9 0 1 661.9174 210.9414
  Z
  M 658.5293 211.1069
  A 17.54 17.21 -0.5 0 0 640.8398 194.0507
  A 17.54 17.21 -0.5 0 0 623.4507 211.4131
  A 17.54 17.21 -0.5 0 0 641.1402 228.4693
  A 17.54 17.21 -0.5 0 0 658.5293 211.1069
  Z"
/>
<path fill="#000000" d="
  M 737.77 211.26
  A 20.60 20.60 0.0 0 1 717.17 231.86
  A 20.60 20.60 0.0 0 1 696.57 211.26
  A 20.60 20.60 0.0 0 1 717.17 190.66
  A 20.60 20.60 0.0 0 1 737.77 211.26
  Z
  M 734.37 211.27
  A 17.19 17.19 0.0 0 0 717.18 194.08
  A 17.19 17.19 0.0 0 0 699.99 211.27
  A 17.19 17.19 0.0 0 0 717.18 228.46
  A 17.19 17.19 0.0 0 0 734.37 211.27
  Z"
/>
<path fill="#000000" d="
  M 168.94 224.48
  A 20.92 20.92 0.0 0 1 148.02 245.40
  A 20.92 20.92 0.0 0 1 127.10 224.48
  A 20.92 20.92 0.0 0 1 148.02 203.56
  A 20.92 20.92 0.0 0 1 168.94 224.48
  Z
  M 165.57 224.47
  A 17.54 17.54 0.0 0 0 148.03 206.93
  A 17.54 17.54 0.0 0 0 130.49 224.47
  A 17.54 17.54 0.0 0 0 148.03 242.01
  A 17.54 17.54 0.0 0 0 165.57 224.47
  Z"
/>
<path fill="#000000" d="
  M 130.2865 248.4663
  A 39.49 39.34 -1.5 0 1 91.8398 288.8265
  A 39.49 39.34 -1.5 0 1 51.3335 250.5337
  A 39.49 39.34 -1.5 0 1 89.7802 210.1735
  A 39.49 39.34 -1.5 0 1 130.2865 248.4663
  Z
  M 128.28 249.52
  A 37.47 37.32 0.0 0 0 90.81 212.20
  A 37.47 37.32 0.0 0 0 53.34 249.52
  A 37.47 37.32 0.0 0 0 90.81 286.84
  A 37.47 37.32 0.0 0 0 128.28 249.52
  Z"
/>
<ellipse fill="#d1d1d1" cx="90.81" cy="249.52" rx="37.47" ry="37.32"/>
<path fill="#000000" d="
  M 307.81 385.18
  A 0.38 0.38 0.0 0 1 307.43 385.56
  L 244.59 385.56
  A 0.38 0.38 0.0 0 1 244.21 385.18
  L 244.21 249.88
  A 0.38 0.38 0.0 0 1 244.59 249.50
  L 307.43 249.50
  A 0.38 0.38 0.0 0 1 307.81 249.88
  L 307.81 385.18
  Z
  M 274.71 252.04
  A 0.53 0.53 0.0 0 0 274.18 251.51
  L 246.76 251.51
  A 0.53 0.53 0.0 0 0 246.23 252.04
  L 246.23 383.06
  A 0.53 0.53 0.0 0 0 246.76 383.59
  L 274.18 383.59
  A 0.53 0.53 0.0 0 0 274.71 383.06
  L 274.71 252.04
  Z
  M 305.78 251.81
  A 0.30 0.30 0.0 0 0 305.48 251.51
  L 277.02 251.51
  A 0.30 0.30 0.0 0 0 276.72 251.81
  L 276.72 383.23
  A 0.30 0.30 0.0 0 0 277.02 383.53
  L 305.48 383.53
  A 0.30 0.30 0.0 0 0 305.78 383.23
  L 305.78 251.81
  Z"
/>
<rect fill="#d1d1d1" x="246.23" y="251.51" width="28.48" height="132.08" rx="0.53"/>
<rect fill="#d1d1d1" x="276.72" y="251.51" width="29.06" height="132.02" rx="0.30"/>
<path fill="#000000" d="
  M 168.95 274.58
  A 20.93 20.93 0.0 0 1 148.02 295.51
  A 20.93 20.93 0.0 0 1 127.09 274.58
  A 20.93 20.93 0.0 0 1 148.02 253.65
  A 20.93 20.93 0.0 0 1 168.95 274.58
  Z
  M 165.57 274.56
  A 17.54 17.54 0.0 0 0 148.03 257.02
  A 17.54 17.54 0.0 0 0 130.49 274.56
  A 17.54 17.54 0.0 0 0 148.03 292.10
  A 17.54 17.54 0.0 0 0 165.57 274.56
  Z"
/>
<path fill="#000000" d="
  M 219.9208 300.2289
  A 20.93 20.60 90.6 0 1 199.5411 279.0843
  A 20.93 20.60 90.6 0 1 220.3592 258.3711
  A 20.93 20.60 90.6 0 1 240.7389 279.5157
  A 20.93 20.60 90.6 0 1 219.9208 300.2289
  Z
  M 219.8339 296.8373
  A 17.54 17.19 91.0 0 0 237.3274 279.6000
  A 17.54 17.19 91.0 0 0 220.4461 261.7627
  A 17.54 17.19 91.0 0 0 202.9526 279.0000
  A 17.54 17.19 91.0 0 0 219.8339 296.8373
  Z"
/>
<path fill="#000000" d="
  M 351.77 279.31
  A 20.93 20.93 0.0 0 1 330.84 300.24
  A 20.93 20.93 0.0 0 1 309.91 279.31
  A 20.93 20.93 0.0 0 1 330.84 258.38
  A 20.93 20.93 0.0 0 1 351.77 279.31
  Z
  M 348.41 279.30
  A 17.54 17.54 0.0 0 0 330.87 261.76
  A 17.54 17.54 0.0 0 0 313.33 279.30
  A 17.54 17.54 0.0 0 0 330.87 296.84
  A 17.54 17.54 0.0 0 0 348.41 279.30
  Z"
/>
<path fill="#000000" d="
  M 437.8184 286.1339
  A 20.96 20.54 -0.7 0 1 417.1109 306.9285
  A 20.96 20.54 -0.7 0 1 395.9016 286.6461
  A 20.96 20.54 -0.7 0 1 416.6091 265.8515
  A 20.96 20.54 -0.7 0 1 437.8184 286.1339
  Z
  M 434.3996 286.2875
  A 17.54 17.20 -0.4 0 0 416.7399 269.2104
  A 17.54 17.20 -0.4 0 0 399.3204 286.5325
  A 17.54 17.20 -0.4 0 0 416.9801 303.6096
  A 17.54 17.20 -0.4 0 0 434.3996 286.2875
  Z"
/>
<path fill="#000000" d="
  M 514.34 286.38
  A 20.96 20.54 0.0 0 1 493.38 306.92
  A 20.96 20.54 0.0 0 1 472.42 286.38
  A 20.96 20.54 0.0 0 1 493.38 265.84
  A 20.96 20.54 0.0 0 1 514.34 286.38
  Z
  M 510.9178 286.1347
  A 17.53 17.20 -0.9 0 0 493.1198 269.2121
  A 17.53 17.20 -0.9 0 0 475.8622 286.6853
  A 17.53 17.20 -0.9 0 0 493.6602 303.6079
  A 17.53 17.20 -0.9 0 0 510.9178 286.1347
  Z"
/>
<path fill="#000000" d="
  M 525.18 435.57
  L 525.74 279.46
  A 1.54 1.54 0.0 0 1 527.29 277.93
  L 746.99 278.85
  A 0.97 0.97 0.0 0 1 747.96 279.77
  Q 747.98 280.06 747.84 280.34
  A 1.08 1.08 0.0 0 1 746.88 280.93
  L 528.42 279.94
  A 0.64 0.64 0.0 0 0 527.78 280.58
  L 527.15 468.26
  A 0.66 0.66 0.0 0 1 526.49 468.92
  L 470.81 468.94
  Q 470.41 468.94 470.09 468.72
  Q 469.71 468.45 469.24 468.91
  A 0.78 0.77 -22.1 0 0 469.00 469.47
  L 469.00 534.99
  Q 469.00 535.98 468.01 535.98
  L 436.75 535.95
  Q 435.79 535.95 435.79 535.00
  L 435.79 436.76
  A 0.45 0.44 -0.0 0 1 436.24 436.32
  L 524.43 436.32
  Q 525.18 436.32 525.18 435.57
  Z
  M 466.99 438.79
  A 0.47 0.47 0.0 0 0 466.52 438.32
  L 438.32 438.32
  A 0.47 0.47 0.0 0 0 437.85 438.79
  L 437.85 533.29
  A 0.47 0.47 0.0 0 0 438.32 533.76
  L 466.52 533.76
  A 0.47 0.47 0.0 0 0 466.99 533.29
  L 466.99 438.79
  Z
  M 525.2437 438.9891
  A 0.61 0.61 0.0 0 0 524.6348 438.3780
  L 469.6349 438.2820
  A 0.61 0.61 0.0 0 0 469.0238 438.8910
  L 468.9763 466.1509
  A 0.61 0.61 0.0 0 0 469.5852 466.7620
  L 524.5851 466.8580
  A 0.61 0.61 0.0 0 0 525.1962 466.2490
  L 525.2437 438.9891
  Z"
/>
<path fill="#000000" d="
  M 574.9057 365.8390
  A 39.49 39.34 89.6 0 1 535.2910 326.6246
  A 39.49 39.34 89.6 0 1 574.3543 286.8610
  A 39.49 39.34 89.6 0 1 613.9690 326.0754
  A 39.49 39.34 89.6 0 1 574.9057 365.8390
  Z
  M 574.5746 363.8299
  A 37.47 37.31 90.1 0 0 611.9499 326.4251
  A 37.47 37.31 90.1 0 0 574.7054 288.8901
  A 37.47 37.31 90.1 0 0 537.3301 326.2949
  A 37.47 37.31 90.1 0 0 574.5746 363.8299
  Z"
/>
<ellipse fill="#d1d1d1" cx="0.00" cy="0.00" transform="translate(574.64,326.36) rotate(90.1)" rx="37.47" ry="37.31"/>
<path fill="#000000" d="
  M 523.83 370.34
  A 0.41 0.41 0.0 0 1 523.42 370.75
  L 387.46 370.75
  A 0.41 0.41 0.0 0 1 387.05 370.34
  L 387.05 308.16
  A 0.41 0.41 0.0 0 1 387.46 307.75
  L 523.42 307.75
  A 0.41 0.41 0.0 0 1 523.83 308.16
  L 523.83 370.34
  Z
  M 521.79 310.20
  A 0.45 0.45 0.0 0 0 521.34 309.75
  L 389.52 309.75
  A 0.45 0.45 0.0 0 0 389.07 310.20
  L 389.07 337.78
  A 0.45 0.45 0.0 0 0 389.52 338.23
  L 521.34 338.23
  A 0.45 0.45 0.0 0 0 521.79 337.78
  L 521.79 310.20
  Z
  M 521.79 340.54
  A 0.30 0.30 0.0 0 0 521.49 340.24
  L 389.37 340.24
  A 0.30 0.30 0.0 0 0 389.07 340.54
  L 389.07 368.42
  A 0.30 0.30 0.0 0 0 389.37 368.72
  L 521.49 368.72
  A 0.30 0.30 0.0 0 0 521.79 368.42
  L 521.79 340.54
  Z"
/>
<rect fill="#d1d1d1" x="389.07" y="309.75" width="132.72" height="28.48" rx="0.45"/>
<path fill="#000000" d="
  M 168.95 352.43
  A 20.92 20.92 0.0 0 1 148.03 373.35
  A 20.92 20.92 0.0 0 1 127.11 352.43
  A 20.92 20.92 0.0 0 1 148.03 331.51
  A 20.92 20.92 0.0 0 1 168.95 352.43
  Z
  M 165.56 352.42
  A 17.54 17.54 0.0 0 0 148.02 334.88
  A 17.54 17.54 0.0 0 0 130.48 352.42
  A 17.54 17.54 0.0 0 0 148.02 369.96
  A 17.54 17.54 0.0 0 0 165.56 352.42
  Z"
/>
<path fill="#000000" d="
  M 219.5921 376.0428
  A 20.93 20.60 91.5 0 1 199.5471 354.5808
  A 20.93 20.60 91.5 0 1 220.6879 334.1972
  A 20.93 20.60 91.5 0 1 240.7329 355.6592
  A 20.93 20.60 91.5 0 1 219.5921 376.0428
  Z
  M 219.7321 372.6555
  A 17.54 17.19 91.3 0 0 237.3156 355.5100
  A 17.54 17.19 91.3 0 0 220.5279 337.5845
  A 17.54 17.19 91.3 0 0 202.9444 354.7300
  A 17.54 17.19 91.3 0 0 219.7321 372.6555
  Z"
/>
<path fill="#000000" d="
  M 351.77 355.13
  A 20.93 20.93 0.0 0 1 330.84 376.06
  A 20.93 20.93 0.0 0 1 309.91 355.13
  A 20.93 20.93 0.0 0 1 330.84 334.20
  A 20.93 20.93 0.0 0 1 351.77 355.13
  Z
  M 348.41 355.12
  A 17.54 17.54 0.0 0 0 330.87 337.58
  A 17.54 17.54 0.0 0 0 313.33 355.12
  A 17.54 17.54 0.0 0 0 330.87 372.66
  A 17.54 17.54 0.0 0 0 348.41 355.12
  Z"
/>
<path fill="#000000" d="
  M 130.3195 377.6668
  A 39.50 39.35 0.3 0 1 90.6140 416.8095
  A 39.50 39.35 0.3 0 1 51.3205 377.2532
  A 39.50 39.35 0.3 0 1 91.0260 338.1105
  A 39.50 39.35 0.3 0 1 130.3195 377.6668
  Z
  M 128.28 377.47
  A 37.47 37.32 0.0 0 0 90.81 340.15
  A 37.47 37.32 0.0 0 0 53.34 377.47
  A 37.47 37.32 0.0 0 0 90.81 414.79
  A 37.47 37.32 0.0 0 0 128.28 377.47
  Z"
/>
<ellipse fill="#d1d1d1" cx="90.81" cy="377.47" rx="37.47" ry="37.32"/>
<rect fill="#d1d1d1" x="389.07" y="340.24" width="132.72" height="28.48" rx="0.30"/>
<path fill="#000000" d="
  M 747.28 693.07
  A 0.44 0.44 0.0 0 1 746.84 693.51
  L 715.22 693.51
  A 0.44 0.44 0.0 0 1 714.78 693.07
  L 714.78 346.73
  A 0.44 0.44 0.0 0 1 715.22 346.29
  L 746.84 346.29
  A 0.44 0.44 0.0 0 1 747.28 346.73
  L 747.28 693.07
  Z
  M 745.26 348.94
  A 0.66 0.66 0.0 0 0 744.60 348.28
  L 717.46 348.28
  A 0.66 0.66 0.0 0 0 716.80 348.94
  L 716.80 460.76
  A 0.66 0.66 0.0 0 0 717.46 461.42
  L 744.60 461.42
  A 0.66 0.66 0.0 0 0 745.26 460.76
  L 745.26 348.94
  Z
  M 745.27 464.00
  A 0.56 0.56 0.0 0 0 744.71 463.44
  L 717.35 463.44
  A 0.56 0.56 0.0 0 0 716.79 464.00
  L 716.79 575.94
  A 0.56 0.56 0.0 0 0 717.35 576.50
  L 744.71 576.50
  A 0.56 0.56 0.0 0 0 745.27 575.94
  L 745.27 464.00
  Z
  M 745.26 579.00
  A 0.52 0.52 0.0 0 0 744.74 578.48
  L 717.32 578.48
  A 0.52 0.52 0.0 0 0 716.80 579.00
  L 716.80 690.98
  A 0.52 0.52 0.0 0 0 717.32 691.50
  L 744.74 691.50
  A 0.52 0.52 0.0 0 0 745.26 690.98
  L 745.26 579.00
  Z"
/>
<rect fill="#d1d1d1" x="716.80" y="348.28" width="28.46" height="113.14" rx="0.66"/>
<path fill="#000000" d="
  M 712.69 382.89
  A 20.92 20.92 0.0 0 1 691.77 403.81
  A 20.92 20.92 0.0 0 1 670.85 382.89
  A 20.92 20.92 0.0 0 1 691.77 361.97
  A 20.92 20.92 0.0 0 1 712.69 382.89
  Z
  M 709.32 382.88
  A 17.54 17.54 0.0 0 0 691.78 365.34
  A 17.54 17.54 0.0 0 0 674.24 382.88
  A 17.54 17.54 0.0 0 0 691.78 400.42
  A 17.54 17.54 0.0 0 0 709.32 382.88
  Z"
/>
<path fill="#000000" d="
  M 574.7509 410.5589
  A 20.92 20.59 90.6 0 1 554.3811 389.4244
  A 20.92 20.59 90.6 0 1 575.1891 368.7211
  A 20.92 20.59 90.6 0 1 595.5589 389.8556
  A 20.92 20.59 90.6 0 1 574.7509 410.5589
  Z
  M 574.6333 407.1868
  A 17.54 17.20 91.1 0 0 592.1668 389.9802
  A 17.54 17.20 91.1 0 0 575.3067 372.1132
  A 17.54 17.20 91.1 0 0 557.7732 389.3198
  A 17.54 17.20 91.1 0 0 574.6333 407.1868
  Z"
/>
<path fill="#000000" d="
  M 437.76 394.41
  A 20.92 20.92 0.0 0 1 416.84 415.33
  A 20.92 20.92 0.0 0 1 395.92 394.41
  A 20.92 20.92 0.0 0 1 416.84 373.49
  A 20.92 20.92 0.0 0 1 437.76 394.41
  Z
  M 434.42 394.39
  A 17.55 17.55 0.0 0 0 416.87 376.84
  A 17.55 17.55 0.0 0 0 399.32 394.39
  A 17.55 17.55 0.0 0 0 416.87 411.94
  A 17.55 17.55 0.0 0 0 434.42 394.39
  Z"
/>
<path fill="#000000" d="
  M 514.28 394.41
  A 20.92 20.92 0.0 0 1 493.36 415.33
  A 20.92 20.92 0.0 0 1 472.44 394.41
  A 20.92 20.92 0.0 0 1 493.36 373.49
  A 20.92 20.92 0.0 0 1 514.28 394.41
  Z
  M 510.93 394.39
  A 17.54 17.54 0.0 0 0 493.39 376.85
  A 17.54 17.54 0.0 0 0 475.85 394.39
  A 17.54 17.54 0.0 0 0 493.39 411.93
  A 17.54 17.54 0.0 0 0 510.93 394.39
  Z"
/>
<path fill="#000000" d="
  M 168.94 402.53
  A 20.92 20.92 0.0 0 1 148.02 423.45
  A 20.92 20.92 0.0 0 1 127.10 402.53
  A 20.92 20.92 0.0 0 1 148.02 381.61
  A 20.92 20.92 0.0 0 1 168.94 402.53
  Z
  M 165.57 402.51
  A 17.54 17.54 0.0 0 0 148.03 384.97
  A 17.54 17.54 0.0 0 0 130.49 402.51
  A 17.54 17.54 0.0 0 0 148.03 420.05
  A 17.54 17.54 0.0 0 0 165.57 402.51
  Z"
/>
<path fill="#000000" d="
  M 712.69 430.96
  A 20.92 20.92 0.0 0 1 691.77 451.88
  A 20.92 20.92 0.0 0 1 670.85 430.96
  A 20.92 20.92 0.0 0 1 691.77 410.04
  A 20.92 20.92 0.0 0 1 712.69 430.96
  Z
  M 709.32 430.94
  A 17.54 17.54 0.0 0 0 691.78 413.40
  A 17.54 17.54 0.0 0 0 674.24 430.94
  A 17.54 17.54 0.0 0 0 691.78 448.48
  A 17.54 17.54 0.0 0 0 709.32 430.94
  Z"
/>
<rect fill="#c04f15" x="437.85" y="438.32" width="29.14" height="95.44" rx="0.47"/>
<rect fill="#d1d1d1" x="-28.11" y="-14.24" transform="translate(497.11,452.57) rotate(0.1)" width="56.22" height="28.48" rx="0.61"/>
<rect fill="#d1d1d1" x="716.79" y="463.44" width="28.48" height="113.06" rx="0.56"/>
<path fill="#000000" d="
  M 351.85 684.75
  Q 351.68 684.91 351.44 684.91
  Q 187.09 684.69 22.92 684.93
  Q 20.25 684.93 17.40 685.10
  Q 16.00 685.18 16.00 683.78
  L 16.00 470.49
  A 0.26 0.26 0.0 0 1 16.26 470.23
  L 316.70 470.23
  A 1.17 1.13 66.8 0 1 317.51 470.57
  L 352.87 505.95
  A 1.21 1.18 -68.3 0 1 353.23 506.81
  L 353.23 684.37
  A 0.56 0.55 -86.0 0 1 352.60 684.92
  Q 352.45 684.90 352.35 684.78
  A 0.34 0.34 0.0 0 0 351.85 684.75
  Z
  M 351.18 507.33
  A 0.65 0.65 0.0 0 0 350.99 506.87
  L 316.53 472.43
  A 0.65 0.65 0.0 0 0 316.07 472.24
  L 18.65 472.24
  A 0.65 0.65 0.0 0 0 18.00 472.89
  L 18.00 682.14
  A 0.65 0.65 0.0 0 0 18.65 682.79
  L 350.53 682.79
  A 0.65 0.65 0.0 0 0 351.18 682.14
  L 351.18 507.33
  Z"
/>
<path fill="#000000" d="
  M 496.7982 512.7680
  A 20.90 20.61 90.8 0 1 476.4820 491.5822
  A 20.90 20.61 90.8 0 1 497.3818 470.9720
  A 20.90 20.61 90.8 0 1 517.6980 492.1578
  A 20.90 20.61 90.8 0 1 496.7982 512.7680
  Z
  M 496.5591 509.4113
  A 17.54 17.20 91.8 0 0 514.3015 492.4203
  A 17.54 17.20 91.8 0 0 497.6609 474.3487
  A 17.54 17.20 91.8 0 0 479.9185 491.3397
  A 17.54 17.20 91.8 0 0 496.5591 509.4113
  Z"
/>
<path fill="#83cbeb" d="
  M 351.18 507.33
  L 351.18 682.14
  A 0.65 0.65 0.0 0 1 350.53 682.79
  L 18.65 682.79
  A 0.65 0.65 0.0 0 1 18.00 682.14
  L 18.00 472.89
  A 0.65 0.65 0.0 0 1 18.65 472.24
  L 316.07 472.24
  A 0.65 0.65 0.0 0 1 316.53 472.43
  L 350.99 506.87
  A 0.65 0.65 0.0 0 1 351.18 507.33
  Z"
/>
<path fill="#000000" d="
  M 712.0268 497.9349
  A 20.92 20.58 -1.0 0 1 691.4692 518.8769
  A 20.92 20.58 -1.0 0 1 670.1932 498.6651
  A 20.92 20.58 -1.0 0 1 690.7508 477.7231
  A 20.92 20.58 -1.0 0 1 712.0268 497.9349
  Z
  M 708.6393 498.1470
  A 17.53 17.21 -0.5 0 0 690.9598 481.0907
  A 17.53 17.21 -0.5 0 0 673.5807 498.4530
  A 17.53 17.21 -0.5 0 0 691.2602 515.5093
  A 17.53 17.21 -0.5 0 0 708.6393 498.1470
  Z"
/>
<path fill="#000000" d="
  M 712.01 546.71
  A 20.92 20.92 0.0 0 1 691.09 567.63
  A 20.92 20.92 0.0 0 1 670.17 546.71
  A 20.92 20.92 0.0 0 1 691.09 525.79
  A 20.92 20.92 0.0 0 1 712.01 546.71
  Z
  M 708.64 546.70
  A 17.54 17.54 0.0 0 0 691.10 529.16
  A 17.54 17.54 0.0 0 0 673.56 546.70
  A 17.54 17.54 0.0 0 0 691.10 564.24
  A 17.54 17.54 0.0 0 0 708.64 546.70
  Z"
/>
<path fill="#000000" d="
  M 556.29 692.93
  A 0.58 0.58 0.0 0 1 555.71 693.51
  L 433.03 693.51
  A 0.58 0.58 0.0 0 1 432.45 692.93
  L 432.45 577.07
  A 0.58 0.58 0.0 0 1 433.03 576.49
  L 555.71 576.49
  A 0.58 0.58 0.0 0 1 556.29 577.07
  L 556.29 692.93
  Z
  M 523.85 579.10
  A 0.61 0.61 0.0 0 0 523.24 578.49
  L 435.08 578.49
  A 0.61 0.61 0.0 0 0 434.47 579.10
  L 434.47 690.92
  A 0.61 0.61 0.0 0 0 435.08 691.53
  L 523.24 691.53
  A 0.61 0.61 0.0 0 0 523.85 690.92
  L 523.85 579.10
  Z
  M 554.32 579.08
  A 0.62 0.62 0.0 0 0 553.70 578.46
  L 526.50 578.46
  A 0.62 0.62 0.0 0 0 525.88 579.08
  L 525.88 690.88
  A 0.62 0.62 0.0 0 0 526.50 691.50
  L 553.70 691.50
  A 0.62 0.62 0.0 0 0 554.32 690.88
  L 554.32 579.08
  Z"
/>
<rect fill="#c04f15" x="434.47" y="578.49" width="89.38" height="113.04" rx="0.61"/>
<rect fill="#d1d1d1" x="525.88" y="578.46" width="28.44" height="113.04" rx="0.62"/>
<rect fill="#d1d1d1" x="716.80" y="578.48" width="28.46" height="113.02" rx="0.52"/>
<path fill="#000000" d="
  M 600.97 613.06
  A 20.92 20.92 0.0 0 1 580.05 633.98
  A 20.92 20.92 0.0 0 1 559.13 613.06
  A 20.92 20.92 0.0 0 1 580.05 592.14
  A 20.92 20.92 0.0 0 1 600.97 613.06
  Z
  M 597.61 613.04
  A 17.55 17.55 0.0 0 0 580.06 595.49
  A 17.55 17.55 0.0 0 0 562.51 613.04
  A 17.55 17.55 0.0 0 0 580.06 630.59
  A 17.55 17.55 0.0 0 0 597.61 613.04
  Z"
/>
<path fill="#000000" d="
  M 712.01 613.06
  A 20.92 20.92 0.0 0 1 691.09 633.98
  A 20.92 20.92 0.0 0 1 670.17 613.06
  A 20.92 20.92 0.0 0 1 691.09 592.14
  A 20.92 20.92 0.0 0 1 712.01 613.06
  Z
  M 708.65 613.05
  A 17.55 17.55 0.0 0 0 691.10 595.50
  A 17.55 17.55 0.0 0 0 673.55 613.05
  A 17.55 17.55 0.0 0 0 691.10 630.60
  A 17.55 17.55 0.0 0 0 708.65 613.05
  Z"
/>
<path fill="#000000" d="
  M 600.9980 661.1576
  A 20.94 20.58 -0.8 0 1 580.3473 682.0280
  A 20.94 20.58 -0.8 0 1 559.1220 661.7424
  A 20.94 20.58 -0.8 0 1 579.7727 640.8720
  A 20.94 20.58 -0.8 0 1 600.9980 661.1576
  Z
  M 597.5887 661.2357
  A 17.54 17.20 -0.7 0 0 579.8399 644.2513
  A 17.54 17.20 -0.7 0 0 562.5113 661.6643
  A 17.54 17.20 -0.7 0 0 580.2601 678.6487
  A 17.54 17.20 -0.7 0 0 597.5887 661.2357
  Z"
/>
<path fill="#000000" d="
  M 712.0374 661.1214
  A 20.92 20.58 -0.9 0 1 691.4433 682.0275
  A 20.92 20.58 -0.9 0 1 670.2026 661.7786
  A 20.92 20.58 -0.9 0 1 690.7967 640.8725
  A 20.92 20.58 -0.9 0 1 712.0374 661.1214
  Z
  M 708.6348 661.0215
  A 17.54 17.21 -1.4 0 0 690.6795 644.2451
  A 17.54 17.21 -1.4 0 0 673.5652 661.8785
  A 17.54 17.21 -1.4 0 0 691.5205 678.6549
  A 17.54 17.21 -1.4 0 0 708.6348 661.0215
  Z"
/>
<path fill="#000000" d="
  M 402.79 665.46
  L 402.82 691.02
  A 0.56 0.56 0.0 0 1 402.26 691.58
  L 382.70 691.55
  A 0.56 0.56 0.0 0 1 382.14 690.99
  L 382.12 665.46
  A 0.56 0.56 0.0 0 0 381.56 664.90
  L 372.53 664.97
  A 0.56 0.56 0.0 0 1 372.13 664.01
  L 392.02 644.16
  A 0.56 0.56 0.0 0 1 392.82 644.16
  L 412.59 663.94
  A 0.56 0.56 0.0 0 1 412.19 664.89
  L 403.35 664.90
  A 0.56 0.56 0.0 0 0 402.79 665.46
  Z
  M 400.79 663.41
  A 0.58 0.58 0.0 0 1 401.37 662.83
  L 407.29 662.81
  A 0.58 0.58 0.0 0 0 407.70 661.82
  L 392.89 647.10
  A 0.58 0.58 0.0 0 0 392.07 647.10
  L 377.23 661.84
  A 0.58 0.58 0.0 0 0 377.64 662.83
  L 383.65 662.79
  A 0.58 0.58 0.0 0 1 384.23 663.37
  L 384.17 689.00
  A 0.58 0.58 0.0 0 0 384.75 689.58
  L 400.20 689.54
  A 0.58 0.58 0.0 0 0 400.78 688.96
  L 400.79 663.41
  Z"
/>
<path fill="#ff0000" d="
  M 400.79 663.41
  L 400.78 688.96
  A 0.58 0.58 0.0 0 1 400.20 689.54
  L 384.75 689.58
  A 0.58 0.58 0.0 0 1 384.17 689.00
  L 384.23 663.37
  A 0.58 0.58 0.0 0 0 383.65 662.79
  L 377.64 662.83
  A 0.58 0.58 0.0 0 1 377.23 661.84
  L 392.07 647.10
  A 0.58 0.58 0.0 0 1 392.89 647.10
  L 407.70 661.82
  A 0.58 0.58 0.0 0 1 407.29 662.81
  L 401.37 662.83
  A 0.58 0.58 0.0 0 0 400.79 663.41
  Z"
/>
</svg>
